<?xml version="1.0" encoding="utf-8"?>
<!-- Generator: Adobe Illustrator 24.1.1, SVG Export Plug-In . SVG Version: 6.00 Build 0)  -->
<svg version="1.1" xmlns="http://www.w3.org/2000/svg" xmlns:xlink="http://www.w3.org/1999/xlink" x="0px" y="0px"
	 viewBox="0 0 3710 3710" style="enable-background:new 0 0 3710 3710;" xml:space="preserve">
<style type="text/css">
	.st0{fill:url(#SVGID_1_);}
	.st1{fill:#91B3FA;}
	.st2{fill:#BDD0FB;}
	.st3{fill:url(#SVGID_2_);}
	.st4{fill:url(#SVGID_3_);}
	.st5{fill:url(#SVGID_4_);}
	.st6{fill:url(#SVGID_5_);}
	.st7{fill:url(#SVGID_6_);}
	.st8{fill:url(#SVGID_7_);}
	.st9{fill:url(#SVGID_8_);}
	.st10{fill:url(#SVGID_9_);}
	.st11{fill:#FFFFFF;}
	.st12{fill:url(#SVGID_10_);}
	.st13{fill:url(#SVGID_11_);}
	.st14{fill:url(#SVGID_12_);}
	.st15{fill:url(#SVGID_13_);}
	.st16{fill:url(#SVGID_14_);}
	.st17{fill:url(#SVGID_15_);}
	.st18{fill:url(#SVGID_16_);}
	.st19{fill:url(#SVGID_17_);}
	.st20{fill:url(#SVGID_18_);}
	.st21{fill:url(#SVGID_19_);}
	.st22{fill:url(#SVGID_20_);}
	.st23{fill:url(#SVGID_21_);}
	.st24{fill:url(#SVGID_22_);}
	.st25{fill:url(#SVGID_23_);}
	.st26{fill:url(#SVGID_24_);}
	.st27{fill:url(#SVGID_25_);}
	.st28{fill:url(#SVGID_26_);}
	.st29{fill:url(#SVGID_27_);}
	.st30{fill:#7D97F4;}
	.st31{fill:url(#SVGID_28_);}
	.st32{fill:url(#SVGID_29_);}
	.st33{fill:url(#SVGID_30_);}
	.st34{fill:url(#SVGID_31_);}
	.st35{fill:url(#SVGID_32_);}
	.st36{fill:url(#SVGID_33_);}
	.st37{fill:url(#SVGID_34_);}
	.st38{fill:url(#SVGID_35_);}
	.st39{fill:url(#SVGID_36_);}
	.st40{fill:url(#SVGID_37_);}
	.st41{fill:url(#SVGID_38_);}
	.st42{fill:url(#SVGID_39_);}
	.st43{fill:url(#SVGID_40_);}
	.st44{fill:url(#SVGID_41_);}
	.st45{fill:url(#SVGID_42_);}
	.st46{fill:url(#SVGID_43_);}
	.st47{fill:url(#SVGID_44_);}
	.st48{fill:url(#SVGID_45_);}
	.st49{fill:url(#SVGID_46_);}
	.st50{fill:url(#SVGID_47_);}
	.st51{fill:url(#SVGID_48_);}
	.st52{fill:url(#SVGID_49_);}
	.st53{fill:url(#SVGID_50_);}
	.st54{fill:url(#SVGID_51_);}
	.st55{fill:url(#SVGID_52_);}
	.st56{fill:url(#SVGID_53_);}
	.st57{fill:url(#SVGID_54_);}
	.st58{fill:url(#SVGID_55_);}
	.st59{fill:url(#SVGID_56_);}
	.st60{fill:url(#SVGID_57_);}
	.st61{fill:url(#SVGID_58_);}
	.st62{fill:url(#SVGID_59_);}
	.st63{fill:url(#SVGID_60_);}
	.st64{fill:url(#SVGID_61_);}
	.st65{fill:url(#SVGID_62_);}
	.st66{fill:url(#SVGID_63_);}
	.st67{fill:url(#SVGID_64_);}
	.st68{fill:url(#SVGID_65_);}
	.st69{fill:url(#SVGID_66_);}
	.st70{fill:url(#SVGID_67_);}
	.st71{fill:url(#SVGID_68_);}
	.st72{fill:url(#SVGID_69_);}
	.st73{fill:url(#SVGID_70_);}
	.st74{fill:url(#SVGID_71_);}
	.st75{fill:url(#SVGID_72_);}
	.st76{fill:url(#SVGID_73_);}
	.st77{fill:url(#SVGID_74_);}
	.st78{fill:url(#SVGID_75_);}
</style>
<g id="Background">
</g>
<g id="Illustration">
	<g>
		<linearGradient id="SVGID_1_" gradientUnits="userSpaceOnUse" x1="3594.0818" y1="4071.2961" x2="1109.557" y2="985.6721">
			<stop  offset="0" style="stop-color:#DAE3FE"/>
			<stop  offset="1" style="stop-color:#E9EFFD"/>
		</linearGradient>
		<path class="st0" d="M2910.6,2854.4c-57.1,60.1-111.1,98.8-153.7,129.4c-501.5,359.8-1094.9,254.9-1221,229.3
			c-186.2-37.8-546.2-110.9-806.5-417c-393.7-463-332.4-1192.5-27-1674.1c55.9-88.1,351-577,950.8-655.4
			c363-47.4,786.1,48.2,1092.5,305C3388.8,1310.5,3343,2399.2,2910.6,2854.4z"/>
		<g>
			<g>
				<g>
					<path class="st1" d="M502.9,1402.6c-2.7-1.3-4.6-4-4.7-7.2c0-10.4,0.1-21,0.5-31.4c0.2-4.3,3.8-7.6,8.2-7.4
						c10.6,0.5,7,10.8,7.1,39c0,4.3-3.5,7.7-7.9,7.7C505,1403.3,503.9,1403,502.9,1402.6z"/>
					<path class="st1" d="M508.8,1266.6c3.3-19.7,7.5-39.5,12.4-58.9c1.1-4.2,5.3-6.6,9.6-5.5c11.5,3.1,3.4,9.1-6.4,67.2
						c-0.7,4.2-4.8,7-9.1,6.2C511,1274.9,508.1,1270.8,508.8,1266.6z M551.2,1114.8c7.4-18.7,15.6-37.4,24.2-55
						c4.6-9.5,18.7-2.1,14.3,7c-8.6,17.6-16.5,35.6-23.8,53.9c-1.6,4-6.2,5.9-10.2,4.3C551.6,1123.3,549.7,1118.8,551.2,1114.8z
						 M624,975.1c11-16.6,22.9-33,35.2-48.8c6.4-8.1,18.9,1.6,12.6,9.7c-12.1,15.4-23.7,31.5-34.5,47.8
						C631.6,992.3,618.3,983.6,624,975.1z M724.5,864.4c-3.1-3.1-3.1-8-0.1-11c14.3-14,29.3-27.6,44.7-40.5
						c7.9-6.6,18.3,5.4,10.3,12c-15.1,12.6-29.8,25.9-43.8,39.7C732.6,867.6,727.6,867.5,724.5,864.4z M846.2,765.8
						c-2.4-3.6-1.4-8.4,2.2-10.8c17-10.8,34.5-21.1,52.3-30.5c9.1-4.8,16.8,8.9,7.7,13.7c-17.4,9.3-34.6,19.3-51.3,29.9
						C853.5,770.4,848.6,769.4,846.2,765.8z M990.2,698.1c-1.8-0.8-3.3-2.3-4.1-4.3c-1.6-4,0.3-8.5,4.4-10.1
						c18.9-7.2,38.3-13.7,57.7-19.3c4.2-1.2,8.6,1.1,9.9,5.3c1.3,4.1-1,8.5-5.2,9.7c-19,5.6-38,11.9-56.5,19
						C994.3,699.1,992.1,699,990.2,698.1z M1142.9,657.4c-2.3-1.1-4.1-3.2-4.5-5.8c-0.8-4.2,2.1-8.2,6.4-8.9
						c20-3.2,40.4-5.7,60.6-7.3c4.3-0.4,8.2,2.8,8.7,7.1c0.4,4.3-2.7,8-7.1,8.4c-19.8,1.6-39.8,4-59.4,7.2
						C1145.9,658.3,1144.3,658,1142.9,657.4z M1296.6,640.9c0.1-4.3,3.8-7.6,8.1-7.4c20.3,0.9,40.9,2.6,61.1,5.1
						c10.4,1.3,8.7,16.7-1.7,15.5c-19.8-2.4-40-4.1-59.9-5C1300,648.9,1296.5,645.2,1296.6,640.9z M1790.5,845.3
						c-44.7-39.5-55.4-39.6-48.2-49c2.6-3.4,7.6-4,11.1-1.4c16.3,12.3,32.3,25.3,47.6,38.8C1808.8,840.7,1798.4,852.2,1790.5,845.3z
						 M1454.4,662.4c1-4.2,5.3-6.7,9.5-5.6c19.8,5,39.6,10.8,59,17.2c10,3.3,5.1,18.1-4.8,14.7c-19-6.3-38.4-12-57.8-16.9
						C1455.9,670.8,1453.4,666.6,1454.4,662.4z M1662.2,753.4c-51.7-29.7-62.3-27.7-57.2-38.4c3.2-6.8,11.5-3.6,10.5-3.6
						c18.5,8.8,36.8,18.4,54.5,28.5c3.8,2.2,5.1,7,3,10.7C1670.9,754.2,1666.3,755.7,1662.2,753.4z"/>
					<path class="st1" d="M1880,938.6c-16.8-20.7-27.5-28-19.5-34.9c3.3-2.8,8.3-2.4,11.2,0.9c18.2,20.7,27.5,29,19.4,35.3
						C1888.7,941.8,1882.7,941.9,1880,938.6z"/>
				</g>
				<g>
					<path class="st1" d="M2051.1,1519.1c-3.1-1.4-5-4.7-4.6-8.1c1.3-10.2,2.3-20.5,3.2-30.6c0.4-4.3,4.2-7.4,8.5-7
						c4.3,0.4,7.6,4.2,7.2,8.5c-0.9,10.4-2,20.9-3.3,31.2c-0.5,4.3-4.5,7.2-8.8,6.6C2052.6,1519.7,2051.8,1519.5,2051.1,1519.1z"/>
					<path class="st1" d="M940.3,2095.5c-19.7-9.7-39.3-20.4-58.1-31.7c-3.8-2.3-5-7.1-2.8-10.7c6.3-10.3,10,0,67.8,28.6
						c3.9,1.9,5.6,6.6,3.7,10.5C947.5,2098.8,939.3,2095.5,940.3,2095.5z M1034.5,2126.8c3.8-11.4,10.1-2,72.1,13.5
						c4.3,1,6.9,5.3,5.9,9.5c-1,4.2-5.3,6.7-9.5,5.6c-21.2-5.3-42.6-11.6-63.4-18.7C1035.4,2135.3,1033.2,2130.8,1034.5,2126.8z
						 M794,2002.3c-17.1-13.7-33.9-28.3-49.8-43.5c-3.2-3-3.3-7.9-0.3-11c8.5-8.7,9.8,2.2,60,42.5c3.4,2.7,4,7.6,1.3,11
						C802.4,2004.6,797.4,2005.1,794,2002.3z M1206.2,2173.8c-3-1.4-5-4.5-4.6-7.9c0.4-4.3,4.3-7.3,8.6-6.9
						c21.4,2.4,43.1,3.9,64.5,4.5c4.4,0.1,7.9,3.7,7.8,8c0,4.3-3.6,7.7-8,7.6c-21.9-0.6-44-2.2-65.8-4.6
						C1207.8,2174.4,1206.9,2174.1,1206.2,2173.8z M1377.1,2174.1c-2.4-1.1-4.2-3.4-4.6-6.2c-0.5-4.3,2.5-8.1,6.9-8.6
						c21.3-2.3,42.7-5.5,63.7-9.6c4.3-0.8,8.5,1.9,9.4,6.2c0.9,4.2-1.8,8.3-6.1,9.1c-21.4,4.1-43.3,7.4-65,9.8
						C1379.8,2175,1378.4,2174.7,1377.1,2174.1z M1543.3,2137.5c-1.9-0.9-3.4-2.4-4.2-4.5c-1.5-4.1,0.6-8.5,4.8-9.9
						c20.2-6.8,40.3-14.6,59.8-23.1c4-1.7,8.7,0.1,10.5,4c1.8,3.9,0.1,8.5-3.9,10.3c-19.9,8.7-40.4,16.6-61,23.5
						C1547.2,2138.5,1545.1,2138.3,1543.3,2137.5z M1696.9,2065.9c-1.4-0.6-2.6-1.6-3.4-3c-2.3-3.7-1.2-8.5,2.4-10.7
						c18.1-11,36-22.9,53-35.4c3.5-2.5,8.4-1.8,11.1,1.7c2.6,3.5,2,8.3-1.5,10.9c-17.4,12.8-35.7,24.9-54.1,36.2
						C1702,2066.9,1699.2,2067,1696.9,2065.9z M1828,1961.1c-8.7-8.7,2.3-9.5,43.6-57.2c6.7-7.8,18.8,2.5,12.1,10.2
						c-14.1,16.3-29.1,32.1-44.6,47.1C1836.1,1964.3,1831.1,1964.2,1828,1961.1z M1936,1832.2c-10.4-6.6,0.1-9.8,29.6-65.5
						c4.8-9,18.9-1.7,14,7.4c-10.1,19-21.1,37.8-32.7,55.8C1944.6,1833.6,1939.6,1834.5,1936,1832.2z M2011.6,1682.4
						c-3.7-1.7-5.6-6-4.2-9.8c7.2-19.9,13.7-40.2,19.2-60.5c1.1-4.1,5.4-6.5,9.7-5.4c4.2,1.2,6.7,5.5,5.6,9.6
						c-5.6,20.7-12.2,41.4-19.6,61.7c-1.5,4-6,6.1-10.1,4.5C2012,1682.6,2011.8,1682.5,2011.6,1682.4z"/>
					<path class="st1" d="M671.2,1879.6c-17.2-21.5-26.1-30.2-17.8-36.1c8.6-6.1,12.5,4.6,30.1,26.6c2.7,3.4,2.2,8.3-1.2,10.9
						C679,1883.7,674,1883,671.2,1879.6z"/>
				</g>
				<g>
					<path class="st1" d="M771.5,1689.6l113.2-6c31.3,42.6,69.7,80.8,114.3,112.4c-3.3,108.5-11.2,115.9,0.1,120.6l126.3,52.2
						c3.7,1.5,7.9,0.6,10.5-2.3l74.3-83.1c53.9,9.1,107.9,9.2,160.1,1.1l76.1,84.2c2.7,3,6.9,3.9,10.6,2.5l125.2-50.4
						c3.7-1.5,5.9-5.1,5.6-9l-8-111.6c42.7-30.1,80.8-67.3,112.1-110.7l113.3,7.6c4,0.3,7.6-2,9.1-5.6l50.8-123.5
						c1.5-3.6,0.5-7.8-2.5-10.4l-85.6-74.7c8.3-53,7.4-106.2-1.7-157.8c80.7-73.5,91.3-72.8,86.5-83.9
						c-54.5-121-50.2-130.6-62.6-130l-113.2,6c-31.3-42.6-69.7-80.8-114.3-112.4c3.3-108.4,11.2-115.9-0.1-120.6
						c-126.3-49.7-128.8-58.8-136.8-49.9l-74.3,83.1c-53.9-9.1-107.9-9.2-160.1-1.1c-75.1-79.8-75.4-91.3-86.6-86.7
						c-123,52.1-131.7,47.3-130.9,59.4l8,111.6c-42.7,30.1-80.8,67.3-112.1,110.7c-108.3-5-117.7-13.3-122.4-2
						c-48.1,123.1-57.6,125.8-48.3,133.9l85.6,74.7c-8.3,53-7.4,106.2,1.7,157.8c-80.4,73.3-91.3,72.8-86.5,83.9
						C763.3,1680.6,759.1,1690.2,771.5,1689.6z"/>
					<g>
						<path class="st2" d="M1153.9,1380.5c9.9-71.3,76.9-120.3,149.4-109.3c72.5,11,123.5,77.9,113.6,149.1
							c-9.9,71.3-76.9,120.3-149.4,109.3l0,0C1194.9,1518.7,1144,1451.8,1153.9,1380.5z M1269,1518.1L1269,1518.1L1269,1518.1z
							 M1300.1,1294.3c-58.9-8.9-114.5,30.4-122.7,89.8c-8.1,58.5,33.7,113.5,93.3,122.5c59.6,9,114.6-31.3,122.7-89.8
							C1401.5,1358.1,1359.5,1303.3,1300.1,1294.3z"/>
					</g>
					<path class="st2" d="M1148,1702.3L1148,1702.3c-17.9-8.2-35-18-51.2-29c-4.8-3.3-6.5-9.5-4.2-14.5c0.3-0.6,0.6-1.2,1-1.7
						c3.7-5.3,11.1-6.5,16.5-2.8c18.5,12.7,38.6,23.5,59.5,32.2l0,0c157.9,65.3,337.5-3.8,406.8-154.1c1.8-3.8,3.5-7.7,5.1-11.7
						c65.6-159.4-13.8-341.8-175.5-408.8c-161.4-66.8-346.4,6.9-411.9,165.8c-38.9,94.6-15.5,161.6-20,171.3
						c-4.8,10.5-20.7,8.1-22.5-3.3c-10-62.5-2.1-128.6,26-189.6c121.3-263.3,507.5-252.5,623.3,17.1c35.6,83,36.6,174.1,2.6,256.6
						c-1.8,4.3-3.6,8.5-5.5,12.7c-35.2,76.4-97.5,135.5-176.8,167.4c-83.6,33.7-176.1,33-260.4-1.9
						C1156.5,1706.1,1152.3,1704.3,1148,1702.3z"/>
				</g>
			</g>
			<g>
				<path class="st1" d="M2133.6,1207.5c19.1,22.6,42,42.2,68.1,57.9l1.3,63.3c0.1,7,6.1,4.3,75.9,28.2c6.5,2.1,5.7-3.9,43.8-52.4
					c30.3,2.5,60.4-0.1,89.1-7.2l45.7,43.9c5.1,4.9,7.4-1.3,73.6-33.8c2-1,3.1-3.2,2.8-5.4l-8.9-62.7c22.6-19.1,42.2-42,57.9-68.1
					c60.4-2.5,66,1.7,68.1-4.9c21.8-72,27-73.9,21.5-78l-50.6-38c2.5-30.3-0.1-60.4-7.2-89.1l43.9-45.7c4.9-5.1-1.3-7.4-33.8-73.6
					c-3.1-6-6.6-1.3-68.1,6.1c-19.1-22.6-42-42.2-68.1-57.9l-1.3-63.3c-0.1-7-6.1-4.3-75.9-28.2c-6.4-2.1-5.6,3.7-43.8,52.4
					c-30.3-2.5-60.4,0.1-89.1,7.2l-45.7-43.9c-1.6-1.5-4-1.9-6-0.9l-67.6,34.6c-2,1-3.1,3.2-2.8,5.4l8.9,62.7
					c-22.6,19.1-42.2,42-57.9,68.1c-60.4,2.5-66-1.7-68.1,4.9c-21.8,72-27,73.9-21.5,78l50.6,38c-2.5,30.3,0.1,60.4,7.2,89.1
					c-41,44.5-47.9,45.5-44.7,51.6l34.6,67.6C2068.7,1219.7,2072.5,1214.9,2133.6,1207.5z"/>
				<g>
					<g>
						<path class="st2" d="M2266,1022.6c2.8-43.7,40.5-76.8,84.2-74c43.7,2.8,76.8,40.5,74,84.2c-2.8,43.6-40.6,76.8-84.2,74l0,0
							C2296.4,1104,2263.2,1066.3,2266,1022.6z M2340.7,1095.1L2340.7,1095.1L2340.7,1095.1z M2289.6,1024.2
							c-2,30.6,21.3,57.1,51.9,59.1l0,0c49.2,3.2,78-55.1,45.4-92.2C2354.4,954.1,2292.8,974.7,2289.6,1024.2z"/>
					</g>
					<g>
						<path class="st1" d="M1947.3,1146.3c-3-10.2-5.7-20.7-8-31.1c-0.9-4.3,1.8-8.4,6-9.4c10.7-2.3,9.2,9.6,17,35.9
							c1.2,4.2-1.1,8.6-5.3,9.8C1952.9,1152.9,1948.5,1150.5,1947.3,1146.3z"/>
						<path class="st1" d="M1930.4,1010.3c0.9-20.9,3.4-42.6,7.7-64.4c2-10.2,17.5-7.1,15.4,3.1c-11.3,56.4-2.5,70.1-15.6,69.5
							C1933.6,1018.3,1930.3,1014.7,1930.4,1010.3z M1975.4,856.7c-3.9-1.9-5.5-6.6-3.6-10.5c9.4-19.4,20.5-38.2,32.9-55.9
							c6-8.5,18.9,0.5,12.9,9c-11.9,17-22.6,35.1-31.6,53.8C1982.6,859.9,1974.5,856.7,1975.4,856.7z M2077.2,725.4
							c-1-0.5-1.9-1.1-2.7-2c-2.8-3.3-2.4-8.3,0.9-11.1c16.4-14,34-26.9,52.4-38.2c3.7-2.3,8.6-1.1,10.8,2.6
							c2.3,3.7,1.1,8.6-2.6,10.8c-17.7,10.9-34.6,23.3-50.4,36.8C2083.2,726.3,2079.9,726.7,2077.2,725.4z M2222.6,645.4
							c-2-0.9-3.6-2.6-4.2-4.8c-1.3-4.2,1.1-8.6,5.2-9.8c20.6-6.3,41.9-11.1,63.3-14.1c4.3-0.6,8.3,2.4,8.9,6.7
							c0.6,4.3-2.4,8.3-6.7,8.9c-20.6,2.9-41.1,7.4-60.9,13.5C2226.3,646.4,2224.3,646.2,2222.6,645.4z M2383.4,622.2
							c0.5-4.3,4.4-7.4,8.7-6.9c21.5,2.4,42.9,6.6,63.7,12.3c10,2.7,5.9,18-4.2,15.2c-20-5.5-40.6-9.5-61.3-11.8
							C2386,630.4,2383,626.5,2383.4,622.2z"/>
						<path class="st1" d="M2571.4,698.6c-23.8-16.4-34.3-18.1-28.9-27.3c2.2-3.8,6.9-5.1,10.8-2.9c9.2,5.3,18.3,11.1,27.1,17.2
							c3.6,2.5,4.5,7.4,2,11C2580,700.1,2575.1,701.1,2571.4,698.6z"/>
					</g>
					<g>
						<path class="st1" d="M2741.3,976.8c-3.7-28.8-9.4-37.6,1-39.8c4.3-0.9,8.4,1.9,9.3,6.1c2.2,10.4,3.9,21,5.3,31.7
							c0.6,4.3-2.5,8.3-6.8,8.8C2745.8,984.1,2741.8,981.1,2741.3,976.8z"/>
						<path class="st1" d="M2209.4,1411.8c4.1-12.4,13.4,0.4,69.5,9.7c10.2,1.7,7.7,17.3-2.6,15.5c-21-3.5-41.8-8.7-61.9-15.3
							C2210.3,1420.4,2208,1416,2209.4,1411.8z M2371.2,1434.2c-0.4-4.3,2.9-8.1,7.2-8.5c57.2-4.7,67-16.7,70.1-3.9
							c1,4.2-1.6,8.5-5.8,9.5c-20.6,5-41.8,8.4-63,10.1C2375.4,1441.7,2371.6,1438.5,2371.2,1434.2z M2528.8,1391.3
							c-6.1-11.6,9.4-9.4,55.1-43.5c8.3-6.2,17.8,6.4,9.4,12.6c-17,12.7-35.2,24.2-53.9,34.1
							C2535.6,1396.6,2530.8,1395.1,2528.8,1391.3z M2656.9,1289.9c-10.2-8.3,5-12.3,33.7-61.6c5.2-9,18.9-1.1,13.6,7.9
							c-10.7,18.3-22.9,36-36.2,52.5C2665.2,1292.1,2660.2,1292.6,2656.9,1289.9z M2729.4,1136.6c15.6-55.2,7.8-68.6,20.8-67
							c4.3,0.5,7.4,4.5,6.9,8.8c-2.6,21.1-6.8,42.2-12.6,62.6c-1.2,4.2-5.5,6.6-9.7,5.4C2730.7,1145.1,2728.2,1140.8,2729.4,1136.6z
							"/>
						<path class="st1" d="M2120.6,1376.9c-9-5.8-17.8-12-26.3-18.4c-3.5-2.6-4.1-7.6-1.5-11c6.6-8.7,13.2,1.3,36.3,16.2
							c3.7,2.4,4.7,7.2,2.4,10.9C2129.1,1378.2,2124.2,1379.2,2120.6,1376.9z"/>
					</g>
					<path class="st2" d="M2249,1196c-6.5-3.7-7.8-11-4.7-16.4c3.3-5.6,10.6-7.6,16.1-4.3c10.5,6.1,21.7,11,33.4,14.8
						c2.6,0.3,62.6,24.3,130.8-10.6c135.3-69.3,119.3-269.1-25.5-315.8c-83.4-26.9-172.6,13.7-208.3,91.3
						c-36,78.2,4.7,118.9-20.2,124.6c-6.4,1.5-12.7-2.5-14.2-8.8c-8-34.3-6.4-70.2,4.4-103.8c32.9-102.2,143-158.9,245.6-125.8
						c110.3,35.6,166.6,160.3,117.2,267.7c-39.9,86.6-140.3,134.8-236.9,103.7l0,0C2273.5,1208.4,2260.9,1202.8,2249,1196z"/>
				</g>
			</g>
		</g>
		<g>
			<linearGradient id="SVGID_2_" gradientUnits="userSpaceOnUse" x1="2137.7273" y1="1461.0786" x2="2103.4854" y2="1687.0759">
				<stop  offset="0" style="stop-color:#09005D"/>
				<stop  offset="1" style="stop-color:#1A0F91"/>
			</linearGradient>
			<path class="st3" d="M2216.7,1478.4c-0.3-3.7-4.1-6.9-10.4-9.4c6.9-3.8,10.8-7.9,10.4-11.9c-1-12.2-39.5-19-86.1-15.2
				c-46.5,3.8-83.5,16.7-82.5,28.8c0.3,3.7,4.1,6.9,10.4,9.4c-6.9,3.8-10.8,7.9-10.4,11.9c0.3,3.7,4.1,6.9,10.4,9.4
				c-6.9,3.8-10.8,7.9-10.4,11.9c0.3,3.7,4.1,6.9,10.4,9.4c-6.9,3.8-10.8,7.9-10.4,11.9c0.4,5.4,8.2,9.7,20.8,12.6
				c-0.2,4-0.1,8.3,0.3,13.1c1.8,22.4,27,40,60.4,40c33.4,0,62.2-24,62.5-46.5c0.1-5.5-0.2-10.4-0.7-14.7
				c16-5.3,25.7-11.8,25.2-18.2c-0.3-3.7-4.1-6.9-10.4-9.4c6.9-3.8,10.8-7.9,10.4-11.9c-0.3-3.7-4.1-6.9-10.4-9.4
				C2213.2,1486.5,2217.1,1482.4,2216.7,1478.4z"/>
			<g>
				<linearGradient id="SVGID_3_" gradientUnits="userSpaceOnUse" x1="2145.2954" y1="1367.3778" x2="2086.1628" y2="2019.5308">
					<stop  offset="0" style="stop-color:#53D8FF"/>
					<stop  offset="1" style="stop-color:#3840F7"/>
				</linearGradient>
				<path class="st4" d="M2109.1,1552.2c-13.8,0-26.5-1-36.9-3c-0.6-0.1-1-0.7-0.9-1.3c0.1-0.6,0.7-1,1.3-0.9
					c16.4,3.1,38.2,3.8,61.5,1.9c19.1-1.5,36.9-4.6,51.6-8.9c0.6-0.2,1.2,0.2,1.4,0.8c0.2,0.6-0.2,1.2-0.8,1.4
					c-14.8,4.3-32.8,7.4-52,9C2125.7,1551.8,2117.2,1552.2,2109.1,1552.2z"/>
				<linearGradient id="SVGID_4_" gradientUnits="userSpaceOnUse" x1="2147.0195" y1="1367.5334" x2="2087.8867" y2="2019.6887">
					<stop  offset="0" style="stop-color:#53D8FF"/>
					<stop  offset="1" style="stop-color:#3840F7"/>
				</linearGradient>
				<path class="st5" d="M2109.4,1530.7c-18,0-34-1.7-45.3-4.9c-0.6-0.2-0.9-0.8-0.8-1.4c0.2-0.6,0.8-0.9,1.4-0.8
					c16.1,4.6,42.1,6,69.5,3.8c27.1-2.2,52.3-7.7,67.6-14.7c0.6-0.3,1.2,0,1.5,0.5c0.3,0.6,0,1.2-0.5,1.5
					c-15.5,7.1-41,12.7-68.3,14.9C2125.8,1530.4,2117.4,1530.7,2109.4,1530.7z"/>
				<linearGradient id="SVGID_5_" gradientUnits="userSpaceOnUse" x1="2143.7512" y1="1367.2374" x2="2084.6187" y2="2019.391">
					<stop  offset="0" style="stop-color:#53D8FF"/>
					<stop  offset="1" style="stop-color:#3840F7"/>
				</linearGradient>
				<path class="st6" d="M2109.1,1509.4c-19.4,0-36.4-2-47.8-5.8c-0.6-0.2-0.9-0.8-0.7-1.4c0.2-0.6,0.8-0.9,1.4-0.7
					c15.9,5.2,42.8,7,72.1,4.6c27.1-2.2,52.3-7.7,67.6-14.7c0.6-0.3,1.2,0,1.5,0.5c0.3,0.6,0,1.2-0.5,1.5
					c-15.5,7.1-41,12.7-68.3,14.9C2125.7,1509,2117.2,1509.4,2109.1,1509.4z"/>
				<linearGradient id="SVGID_6_" gradientUnits="userSpaceOnUse" x1="2145.5103" y1="1367.3966" x2="2086.3774" y2="2019.5518">
					<stop  offset="0" style="stop-color:#53D8FF"/>
					<stop  offset="1" style="stop-color:#3840F7"/>
				</linearGradient>
				<path class="st7" d="M2109.3,1488c-15.4,0-29.4-1.2-40.3-3.7c-0.6-0.1-1-0.7-0.8-1.3c0.1-0.6,0.7-1,1.3-0.8
					c16.4,3.6,39.9,4.6,64.6,2.6c26.8-2.2,52-7.6,67.2-14.5c0.6-0.3,1.2,0,1.5,0.6c0.3,0.6,0,1.2-0.6,1.5c-15.5,7-40.9,12.6-68,14.7
					C2125.8,1487.6,2117.3,1488,2109.3,1488z"/>
			</g>
			<linearGradient id="SVGID_7_" gradientUnits="userSpaceOnUse" x1="2163.4663" y1="903.6233" x2="2072.2368" y2="1521.9578">
				<stop  offset="0" style="stop-color:#FF928E"/>
				<stop  offset="1" style="stop-color:#FE7062"/>
			</linearGradient>
			<path class="st8" d="M2016.9,1370.4c-5.7-20-15.3-38.7-28.2-55c-27.7-34.9-72.9-105.9-78.5-202.9c-8.1-141,117-211.6,231.1-202
				c114.1,9.6,226.7,94.5,214.4,225.7c-7.6,80.7-52.8,141.9-86.4,177.1c-21.4,22.3-36.6,49.7-44.8,79.4
				c-10.1,36.4-34.1,81.9-91.2,84.6C2059.4,1480.9,2028.7,1412.1,2016.9,1370.4z"/>
			<linearGradient id="SVGID_8_" gradientUnits="userSpaceOnUse" x1="3004.3259" y1="160.2487" x2="2593.7917" y2="732.9688">
				<stop  offset="0" style="stop-color:#E1473D"/>
				<stop  offset="1" style="stop-color:#E9605A"/>
			</linearGradient>
			<path class="st9" d="M2152.1,1449.2l39.9-259.7c0.8-5.4,3.5-9,5.9-8c2.4,0.9,3.7,6,2.9,11.4c0,0.1-0.1,0.3-0.1,0.5l-45.5,257.3
				c-0.3,1.9-1.3,3.2-2.2,2.7C2152.3,1452.9,2151.8,1451.1,2152.1,1449.2z"/>
			<linearGradient id="SVGID_9_" gradientUnits="userSpaceOnUse" x1="2947.325" y1="119.3908" x2="2536.7913" y2="692.1105">
				<stop  offset="0" style="stop-color:#E1473D"/>
				<stop  offset="1" style="stop-color:#E9605A"/>
			</linearGradient>
			<path class="st10" d="M2110.7,1451.3l-39.9-259.7c-0.8-5.4-3.5-9-5.9-8c-2.4,0.9-3.7,6-2.9,11.4c0,0.1,0.1,0.3,0.1,0.5
				l45.5,257.3c0.3,1.9,1.3,3.2,2.2,2.7C2110.5,1455,2111,1453.2,2110.7,1451.3z"/>
			<path class="st11" d="M2191.8,1167.3c-1-1.6-3.4-2.2-5.2-1.4l-22.2,10.4l-7.7-22c-0.4-1.1-1.4-2.2-2.7-2.7
				c-2.6-1.1-5.6-0.1-6.8,2.1l0,0.1l-18.3,33.3l-17-47.5l0-0.1c-0.4-1.2-1.3-2.2-2.6-2.9c-2.8-1.6-6.6-0.8-8.4,1.7l-25.6,35.2
				c-1,1.4-0.7,3.4,0.9,4.4c1.7,1.1,4.1,0.9,5.4-0.6l22.5-25.1l20.3,45.1l0,0c0.3,0.7,0.9,1.4,1.8,1.7c1.9,0.9,4.3,0.3,5.3-1.4
				l19.6-31.4l7.4,15.9l0.1,0.1c0.1,0.1,0.1,0.2,0.2,0.3c1,1.6,3.4,2.2,5.2,1.4l26.4-12.3
				C2192.1,1170.9,2192.8,1168.9,2191.8,1167.3z"/>
			<path class="st11" d="M2270.2,1279.8c-1.1,0-2.1-0.3-3-1c-2.2-1.7-2.7-4.8-1-7.1c6.8-9.2,13-18.6,18.5-28.1
				c1.4-2.4,4.5-3.3,6.9-1.9c2.4,1.4,3.3,4.5,1.9,6.9c-5.7,9.8-12.1,19.6-19.2,29.1C2273.3,1279.1,2271.7,1279.8,2270.2,1279.8z"/>
			<path class="st11" d="M2303,1223.4c-0.7,0-1.4-0.1-2-0.4c-2.6-1.1-3.7-4.1-2.6-6.7c42.2-97.2,5.8-178.7,5.4-179.5
				c-1.2-2.5-0.1-5.6,2.5-6.7c2.6-1.2,5.6,0,6.7,2.5c1.6,3.5,38.6,86.5-5.3,187.8C2306.8,1222.3,2305,1223.4,2303,1223.4z"/>
		</g>
		<g>
			<g>
				
					<linearGradient id="SVGID_10_" gradientUnits="userSpaceOnUse" x1="6652.8403" y1="3023.9963" x2="6049.4673" y2="3680.2976" gradientTransform="matrix(1 9.500000e-03 -9.500000e-03 1 -4973.9507 -63.4747)">
					<stop  offset="0" style="stop-color:#09005D"/>
					<stop  offset="1" style="stop-color:#1A0F91"/>
				</linearGradient>
				<path class="st12" d="M1459,3070.8c0,0-6.6,35.3-10,70.3c-1.3,13.7,9.1,25.7,22.8,26.4c46.6,2.4,146.3,7.1,182.1,5.9
					c5.4-0.2,9-5.7,7-10.7l0,0c-1.6-4.2-4.8-7.6-8.9-9.6l-164.1-77.3L1459,3070.8z"/>
				
					<linearGradient id="SVGID_11_" gradientUnits="userSpaceOnUse" x1="6456.9946" y1="3072.7349" x2="6510.5894" y2="3072.7349" gradientTransform="matrix(1 9.500000e-03 -9.500000e-03 1 -4973.9507 -63.4747)">
					<stop  offset="0" style="stop-color:#FEBBBA"/>
					<stop  offset="1" style="stop-color:#FF928E"/>
				</linearGradient>
				<path class="st13" d="M1454,3050l4.6,42.4c0,0,28.7,13.7,48.6-1.2l-11.5-47.3L1454,3050z"/>
				
					<linearGradient id="SVGID_12_" gradientUnits="userSpaceOnUse" x1="6700.3823" y1="2281.7405" x2="6186.9351" y2="2977.6521" gradientTransform="matrix(1 9.500000e-03 -9.500000e-03 1 -4973.9507 -63.4747)">
					<stop  offset="0" style="stop-color:#09005D"/>
					<stop  offset="1" style="stop-color:#1A0F91"/>
				</linearGradient>
				<path class="st14" d="M1465.4,2254.5c-2.3,11-16.9,551.3,38.6,794c0.9,4-1.1,8-4.9,9.5c-8.9,3.5-26.3,8.6-47.1,9.1
					c-6.4,0.2-12.2-4.1-13.9-10.3c-16-56.3-92.4-338.6-100.2-607.6c-8.7-300.6,0.1-10.2,0.1-10.2l8.5-185.7L1465.4,2254.5z"/>
				
					<linearGradient id="SVGID_13_" gradientUnits="userSpaceOnUse" x1="6517.4834" y1="2899.5339" x2="5914.0854" y2="3555.8623" gradientTransform="matrix(1 9.500000e-03 -9.500000e-03 1 -4973.9507 -63.4747)">
					<stop  offset="0" style="stop-color:#09005D"/>
					<stop  offset="1" style="stop-color:#1A0F91"/>
				</linearGradient>
				<path class="st15" d="M1269.2,3087.4c0,0-10.1,17.8-20.2,65.1c-1.8,8.6,4.1,16.8,12.8,17.8c15.4,1.7,39.1,3.8,58.1,3.9
					c8.8,0,15.7-7.5,14.7-16.2c-1.9-17.3-8.2-45.8-28.3-68.2L1269.2,3087.4z"/>
				
					<linearGradient id="SVGID_14_" gradientUnits="userSpaceOnUse" x1="6263.8335" y1="3069.9785" x2="6310.1064" y2="3069.9785" gradientTransform="matrix(1 9.500000e-03 -9.500000e-03 1 -4973.9507 -63.4747)">
					<stop  offset="0" style="stop-color:#FEBBBA"/>
					<stop  offset="1" style="stop-color:#FF928E"/>
				</linearGradient>
				<path class="st16" d="M1261,3032.9l11.1,64.1c0,0,11.5,8.7,34.5,2.7l-4.9-68.9L1261,3032.9z"/>
				
					<linearGradient id="SVGID_15_" gradientUnits="userSpaceOnUse" x1="6608.8721" y1="2214.2249" x2="6095.4302" y2="2910.1292" gradientTransform="matrix(1 9.500000e-03 -9.500000e-03 1 -4973.9507 -63.4747)">
					<stop  offset="0" style="stop-color:#09005D"/>
					<stop  offset="1" style="stop-color:#1A0F91"/>
				</linearGradient>
				<path class="st17" d="M1236.6,2268.9c-50,284.7,3.5,704.8,22.1,787.1c1.1,5,5.2,8.9,10.2,9.8c8.6,1.5,22.9,2.8,37-1.1
					c4.9-1.4,8.3-5.7,8.5-10.7c3.2-66.4,2.4-474,48-634.6c2.3-8.1,7.4-15.2,14.3-20.1l86-59.9l7.5-98.1L1236.6,2268.9z"/>
				<g>
					
						<linearGradient id="SVGID_16_" gradientUnits="userSpaceOnUse" x1="8202.2969" y1="-1624.0333" x2="7729.23" y2="-804.0492" gradientTransform="matrix(-1 0 0 1 7569.6606 0)">
						<stop  offset="0" style="stop-color:#FF928E"/>
						<stop  offset="1" style="stop-color:#FE7062"/>
					</linearGradient>
					<path class="st18" d="M1542.8,1731.5c-141.6-3.7-298.1,34.3-298.1,34.3c-44.6,245.8-12.4,530.2-12.4,530.2
						c109.3,29.8,233.4-15.3,233.4-15.3c19.2-102.7,107-391.6,107-391.6c69.3-7.9,126.4-27.3,173.6-53.3
						c-35.4-41.8-51.8-94.8-58.8-126.1C1637.2,1724.8,1586.5,1732.7,1542.8,1731.5z"/>
					
						<linearGradient id="SVGID_17_" gradientUnits="userSpaceOnUse" x1="6677.5991" y1="1674.4781" x2="6951.4219" y2="1674.4781" gradientTransform="matrix(1 9.500000e-03 -9.500000e-03 1 -4973.9507 -63.4747)">
						<stop  offset="0" style="stop-color:#FEBBBA"/>
						<stop  offset="1" style="stop-color:#FF928E"/>
					</linearGradient>
					<path class="st19" d="M1963,1527c-13.7-16.9-31.4-9.2-31.4-9.2c-21.7,87.8-131.6,158.1-244.2,191.9
						c7,31.3,23.4,84.2,58.8,126.1C1933.5,1732.9,1963,1527,1963,1527z"/>
				</g>
				<g>
					
						<linearGradient id="SVGID_18_" gradientUnits="userSpaceOnUse" x1="3556.3086" y1="1627.6532" x2="3740.0459" y2="2045.6974" gradientTransform="matrix(-1 -9.500000e-03 -9.500000e-03 1 5472.7749 36.7017)">
						<stop  offset="0" style="stop-color:#FEBBBA"/>
						<stop  offset="1" style="stop-color:#FF928E"/>
					</linearGradient>
					<path class="st20" d="M1959.6,1531.2c1.4,4.6-15.5,11.5-25.3-7.5c-0.3-9.1-5.4-48,0.1-55.3c29.2-39.1,85.7-87.9,85.7-87.9
						c9.4,9.4,1.5,18.5,1.5,18.5l-27.4,28c5.6,10.3,12.4,19,15.5,31.5c2.4,9.4,0.8,19.4-4.1,28c-4.8,8.5-11.5,19.6-17.7,28.3
						C1976.2,1531.2,1959.6,1531.2,1959.6,1531.2z"/>
					
						<linearGradient id="SVGID_19_" gradientUnits="userSpaceOnUse" x1="6950.1089" y1="1489.3619" x2="7026.7764" y2="1371.4858" gradientTransform="matrix(1 9.500000e-03 -9.500000e-03 1 -4973.9507 -63.4747)">
						<stop  offset="0" style="stop-color:#FEBBBA"/>
						<stop  offset="1" style="stop-color:#FF928E"/>
					</linearGradient>
					<path class="st21" d="M1982.1,1445.3l-24.9,20.7l-8,20.8l21.8,24.7c0,0,7.8-41.4,13.4-50.3
						C1990,1452.3,1987.2,1448,1982.1,1445.3z"/>
				</g>
				
					<linearGradient id="SVGID_20_" gradientUnits="userSpaceOnUse" x1="8363.3984" y1="-1531.1018" x2="7890.3325" y2="-711.1189" gradientTransform="matrix(-1 0 0 1 7569.6606 0)">
					<stop  offset="0" style="stop-color:#FF928E"/>
					<stop  offset="1" style="stop-color:#FE7062"/>
				</linearGradient>
				<path class="st22" d="M1297.7,1903.4l-53-137.6c0,0-133.1,88.6-155.9,202.3c25,2.1,70.4,9,114.7,31.9
					C1213.7,1946.4,1297.7,1903.4,1297.7,1903.4z"/>
				
					<linearGradient id="SVGID_21_" gradientUnits="userSpaceOnUse" x1="6078.4209" y1="2062.303" x2="6424.9346" y2="2062.303" gradientTransform="matrix(1 9.500000e-03 -9.500000e-03 1 -4973.9507 -63.4747)">
					<stop  offset="0" style="stop-color:#FEBBBA"/>
					<stop  offset="1" style="stop-color:#FF928E"/>
				</linearGradient>
				<path class="st23" d="M1412,2033.5c0,0-149.3,82.5-198.7,10.4c-10.3-15-12.6-29.8-9.9-43.9c-44.3-22.9-89.7-29.8-114.7-31.9
					c-6.9,34.3-3.8,70.8,16.1,108c86.2,161.4,326.5-5.8,326.5-5.8L1412,2033.5z"/>
				
					<linearGradient id="SVGID_22_" gradientUnits="userSpaceOnUse" x1="6344.5078" y1="1691.8655" x2="6481.5137" y2="1691.8655" gradientTransform="matrix(1 9.500000e-03 -9.500000e-03 1 -4973.9507 -63.4747)">
					<stop  offset="0" style="stop-color:#FEBBBA"/>
					<stop  offset="1" style="stop-color:#FF928E"/>
				</linearGradient>
				<path class="st24" d="M1400.5,1615.2l-46.3,129.8c-0.8,2.2,0.1,4.5,2.1,5.7c12.2,6.9,56.3,27,109.9-6.3
					c5.6-3.5,9.4-9.2,10.3-15.7l15.7-112.6L1400.5,1615.2z"/>
				<g>
					
						<linearGradient id="SVGID_23_" gradientUnits="userSpaceOnUse" x1="-567.9231" y1="2721.1606" x2="-619.1201" y2="2552.3005" gradientTransform="matrix(0.7523 -0.6588 0.6588 0.7523 159.4521 -818.1582)">
						<stop  offset="0" style="stop-color:#FEBBBA"/>
						<stop  offset="1" style="stop-color:#FF928E"/>
					</linearGradient>
					<path class="st25" d="M1499.7,1495.5c0,0,48.6,93.6,41.9,131.1c-6.7,37.6-68,34.3-121.2,3.2l-36.4-100.9L1499.7,1495.5z"/>
					
						<linearGradient id="SVGID_24_" gradientUnits="userSpaceOnUse" x1="-614.1094" y1="2426.9468" x2="-571.284" y2="2671.2104" gradientTransform="matrix(0.7523 -0.6588 0.6588 0.7523 159.4521 -818.1582)">
						<stop  offset="0" style="stop-color:#09005D"/>
						<stop  offset="1" style="stop-color:#1A0F91"/>
					</linearGradient>
					<path class="st26" d="M1423.2,1580.5c2.2-0.9,3-3.6,1.7-5.6c-3.9-6.1-11.2-18.5-13.5-29.4c0,0-8.8-5.8,22.8-13
						c31.6-7.2,78.7-18.5,88.9-45.2c9.9-26.1-14.8-92.1-55.7-40.1c-1.6,2-4.6,2-6.1,0c-6.5-8.7-23.8-26.7-48-16.1
						c-22.7,9.9-25.4,26.5-25.2,34.8c0.1,2.5-2.1,4.3-4.6,3.9c-11.4-2.3-38.8-4.4-51.9,23.6c-10.8,23.1-4,36.3,2.1,42.8
						c2,2.1,1.1,5.5-1.7,6.3c-7.5,2.2-17.3,8.5-16.5,26.1c1.1,24.4,28.3,22.5,36.1,21.4c1.3-0.2,2.5,0.3,3.4,1.2
						c6.6,7.4,36.2,38.9,68.6,43c2.8,0.4,5-2.4,4.1-5.1l-13.6-40.9c-0.6-1.9,0.3-4,2.1-4.8L1423.2,1580.5z"/>
					
						<linearGradient id="SVGID_25_" gradientUnits="userSpaceOnUse" x1="-620.258" y1="2720.3723" x2="-666.3209" y2="2568.446" gradientTransform="matrix(0.7523 -0.6588 0.6588 0.7523 159.4521 -818.1582)">
						<stop  offset="0" style="stop-color:#FEBBBA"/>
						<stop  offset="1" style="stop-color:#FF928E"/>
					</linearGradient>
					<path class="st27" d="M1428.7,1586.3c0,0-35-24.5-37.8-4.2c-2.8,20.3,31.4,29.8,48.5,22.4L1428.7,1586.3z"/>
				</g>
				<g>
					<g>
						
							<linearGradient id="SVGID_26_" gradientUnits="userSpaceOnUse" x1="6229.9697" y1="1836.3977" x2="6421.1758" y2="2633.0901" gradientTransform="matrix(1 0 0 1 -4705.6621 0)">
							<stop  offset="0" style="stop-color:#09005D"/>
							<stop  offset="1" style="stop-color:#1A0F91"/>
						</linearGradient>
						<path class="st28" d="M1381.5,2163.9l81.3-284c0.9-3.2,3.7-5.6,7-6c14.7-1.7,57.4-6.5,106.7-10.7c59.4-5,128.3-9.1,169.5-5.6
							c5.9,0.5,9.4,6.7,6.8,12c-23.4,47.4-119.8,240.2-168.1,303.4c-1.6,2.1-4.1,3.3-6.7,3.3l-188.7-1.8
							C1383.9,2174.5,1380,2169.2,1381.5,2163.9z"/>
						
							<linearGradient id="SVGID_27_" gradientUnits="userSpaceOnUse" x1="6098.9502" y1="2047.1652" x2="6207.2832" y2="2047.1652" gradientTransform="matrix(1 0 0 1 -4705.6621 0)">
							<stop  offset="0" style="stop-color:#FEBBBA"/>
							<stop  offset="1" style="stop-color:#FF928E"/>
						</linearGradient>
						<path class="st29" d="M1401.1,2095.3c0,0-11.3-46.6-6.8-63.1c4.6-16.5,13.4-37.8,42.9-33c29.5,4.7,64.3,17.2,64.3,17.2
							s-1.8,21.5-24.2,14.6l13.9,10.8c0,0-2,17.2-20.9,8l12.9,14.3c0,0-8.1,14.2-22.1,5.1
							C1447.3,2059.9,1440.7,2100.9,1401.1,2095.3z"/>
					</g>
					<path class="st1" d="M1571.1,1948c0,13.2,10.7,23.9,23.9,23.9c13.2,0,23.9-10.7,23.9-23.9c0-13.2-10.7-23.9-23.9-23.9
						C1581.8,1924.2,1571.1,1934.9,1571.1,1948z"/>
					<path class="st1" d="M1472,1963.8l-6.1-1.8l16.6-56.2c2.7-9.1,10.1-16,19.3-17.9c52.5-11,190.7-13.2,196.5-13.3l0.1,6.3
						c-1.4,0-143.5,2.3-195.3,13.1c-6.9,1.4-12.4,6.6-14.5,13.5L1472,1963.8z"/>
				</g>
			</g>
			<g>
				<path class="st30" d="M509.7,2758.5c-8.7,12.8-43.1,303.2-48.5,410.5c-0.4,7.3,5.4,13.3,12.7,13.3l0,0c6.3,0,11.6-4.6,12.6-10.8
					l63-403.8L509.7,2758.5z"/>
				<path class="st30" d="M786.6,2758.5c8.7,12.8,43.1,303.2,48.5,410.5c0.4,7.3-5.4,13.3-12.7,13.3l0,0c-6.3,0-11.6-4.6-12.6-10.8
					l-63-403.8L786.6,2758.5z"/>
				<path class="st30" d="M457.5,2735.8l0,3.2c-0.2,22.8,19.4,41.5,44,41.9l291.3,5c24.2,0.4,44.4-17.1,45.6-39.5l0.2-2.9
					c1.2-23.4-18.6-43.1-43.9-43.6l-291.4-5.2C478.3,2694.2,457.8,2712.7,457.5,2735.8z"/>
			</g>
			<g>
				<g>
					<path class="st1" d="M1071.1,3158.4c-51.8,0-74.7-4.4-84.9-8.5c2,8.5,9.6,15.2,19.1,15.2h183.2c6.2,0,10.1-5.9,8.6-11.2
						C1176.2,3155.6,1131.8,3158.4,1071.1,3158.4z"/>
					<linearGradient id="SVGID_28_" gradientUnits="userSpaceOnUse" x1="1067.8546" y1="2574.6421" x2="1090.3816" y2="3126.5535">
						<stop  offset="0" style="stop-color:#4F52FF"/>
						<stop  offset="1" style="stop-color:#4042E2"/>
					</linearGradient>
					<path class="st31" d="M1197,3153.9c-0.3-1.1-0.7-2.1-1.5-3.1c-14-17.8-42-45.8-80.1-45.3c-55.9,0.8-75.3,6.8-118.7,0.3
						l-10.2,33.9c-1,3.5-1.1,6.9-0.3,10.1c10.2,4.1,33.2,8.5,84.9,8.5C1131.8,3158.4,1176.2,3155.6,1197,3153.9z"/>
				</g>
				<linearGradient id="SVGID_29_" gradientUnits="userSpaceOnUse" x1="996.7025" y1="3093.8923" x2="1053.8455" y2="3093.8923">
					<stop  offset="0" style="stop-color:#FEBBBA"/>
					<stop  offset="1" style="stop-color:#FF928E"/>
				</linearGradient>
				<path class="st32" d="M1009.3,3069.3l-12.6,42.7c0,0,27.8,12.7,52.3,2.5l4.8-37L1009.3,3069.3z"/>
				<g>
					<path class="st1" d="M1388.9,3131.5c-40.4,32.4-61,43.3-71.5,46.6c6.9,5.4,16.9,5.8,24.4-0.2l142.8-114.7
						c4.8-3.9,4.2-10.9-0.3-14.1C1469,3063.5,1436.2,3093.5,1388.9,3131.5z"/>
					<linearGradient id="SVGID_30_" gradientUnits="userSpaceOnUse" x1="1369.5428" y1="2562.3284" x2="1392.0698" y2="3114.24">
						<stop  offset="0" style="stop-color:#4F52FF"/>
						<stop  offset="1" style="stop-color:#4042E2"/>
					</linearGradient>
					<path class="st33" d="M1484.3,3049.1c-0.9-0.7-1.9-1.2-3.1-1.5c-22-5.1-61.3-9.2-90.7,15.1c-43,35.6-54.5,52.5-92.3,74.6
						l13.2,32.7c1.3,3.3,3.5,6,6.1,8c10.5-3.3,31.1-14.2,71.5-46.6C1436.2,3093.5,1469,3063.5,1484.3,3049.1z"/>
				</g>
				<linearGradient id="SVGID_31_" gradientUnits="userSpaceOnUse" x1="680.7304" y1="2836.0479" x2="1133.0813" y2="2836.0479">
					<stop  offset="0" style="stop-color:#09005D"/>
					<stop  offset="1" style="stop-color:#1A0F91"/>
				</linearGradient>
				<path class="st34" d="M740.4,2582.3c0,0,310,25.3,373.6,55.2s-51.9,449.5-51.9,449.5s-17.3,8.3-55.8-3.6
					c0,0,39.5-309.6,10.1-376.7l-335.6-54.9L740.4,2582.3z"/>
				<linearGradient id="SVGID_32_" gradientUnits="userSpaceOnUse" x1="1267.3583" y1="3098.7017" x2="1335.5789" y2="3098.7017">
					<stop  offset="0" style="stop-color:#FEBBBA"/>
					<stop  offset="1" style="stop-color:#FF928E"/>
				</linearGradient>
				<path class="st35" d="M1267.4,3078.4c2.9,2.6,30.8,58.9,30.8,58.9s31.1-6.7,37.4-26.4l-28-50.8L1267.4,3078.4z"/>
				<linearGradient id="SVGID_33_" gradientUnits="userSpaceOnUse" x1="1091.6237" y1="2647.5813" x2="595.0173" y2="3210.6348">
					<stop  offset="0" style="stop-color:#09005D"/>
					<stop  offset="1" style="stop-color:#1A0F91"/>
				</linearGradient>
				<path class="st36" d="M553.7,2579.7c0,0-10.1,24.3-9.7,56.6c0.6,44.7,36.5,80.9,81.1,83.1l366.4,16.7
					c7.7,0.4,14.3,5.7,16.2,13.2c8.6,33.3,50.7,135.6,256.4,339.7c5.5,5.4,14,6.4,20.5,2.2l29.3-18.5c3.1-1.9,4.1-6,2.2-9.1
					l-213.4-364.3c-11.2-18.5-29.2-31.9-50.2-37.2l-312.3-79.8L553.7,2579.7z"/>
				<linearGradient id="SVGID_34_" gradientUnits="userSpaceOnUse" x1="888.4167" y1="2137.3647" x2="922.0504" y2="2052.5493">
					<stop  offset="0" style="stop-color:#FEBBBA"/>
					<stop  offset="1" style="stop-color:#FF928E"/>
				</linearGradient>
				<path class="st37" d="M914.8,2010.5c0,0-39.3,69.4-79.3,103l82.7,46.2c0,0,18.6-73.5,61.2-95L914.8,2010.5z"/>
				<linearGradient id="SVGID_35_" gradientUnits="userSpaceOnUse" x1="1796.9087" y1="1063.4705" x2="765.0093" y2="2635.8877">
					<stop  offset="0" style="stop-color:#4F52FF"/>
					<stop  offset="1" style="stop-color:#4042E2"/>
				</linearGradient>
				<path class="st38" d="M547.1,2582.3c0,0,98.9,24.1,193.4,0c0,0,132.1-177.6,183.2-226c0,0,81.5,128.7,263,146.9l10.1-22.6
					c0,0-144.5-66.6-189-168.9c-44.5-102.3-62.3-146-102.8-172.7c-25.2-16.6-40.3-28-48.1-34.2c-4.3-3.4-10.2-3.8-14.8-0.9
					C799.2,2130,597.1,2268.4,547.1,2582.3z"/>
				<linearGradient id="SVGID_36_" gradientUnits="userSpaceOnUse" x1="910.2352" y1="2276.803" x2="1564.0488" y2="1187.1156">
					<stop  offset="0" style="stop-color:#09005D"/>
					<stop  offset="1" style="stop-color:#1A0F91"/>
				</linearGradient>
				<path class="st39" d="M918.3,2353.8c-1.9,0-3.8-0.9-5-2.5c-31.5-41.1-49-86.4-49.8-88.3c-1.3-3.3,0.4-6.9,3.6-8.2
					c3.3-1.3,6.9,0.4,8.2,3.6c0.2,0.5,17.7,45.5,48,85.1c2.1,2.8,1.6,6.8-1.2,8.9C921,2353.4,919.6,2353.8,918.3,2353.8z"/>
				<linearGradient id="SVGID_37_" gradientUnits="userSpaceOnUse" x1="1175.7615" y1="2467.2161" x2="1333.3428" y2="2467.2161">
					<stop  offset="0" style="stop-color:#FEBBBA"/>
					<stop  offset="1" style="stop-color:#FF928E"/>
				</linearGradient>
				<path class="st40" d="M1175.8,2468.8l20.4-5.4l62-14.4c7.5-1.7,15.3-0.4,21.8,3.7l53.3,33.6l-147.3-0.2L1175.8,2468.8z"/>
				<g>
					
						<linearGradient id="SVGID_38_" gradientUnits="userSpaceOnUse" x1="2898.2417" y1="2425.6287" x2="2729.3708" y2="2554.8406" gradientTransform="matrix(0.9914 -0.1306 0.1306 0.9914 -2198.9988 -61.3823)">
						<stop  offset="0" style="stop-color:#FEBBBA"/>
						<stop  offset="1" style="stop-color:#FF928E"/>
					</linearGradient>
					<path class="st41" d="M977.2,1906.5c0,0,38.1,63.4,44.8,98.5c6.6,35.1,17.2,57-22.6,69.5c-39.9,12.5-77-3.3-100.2-36
						c0,0-36.3-50.4-32.7-73.4C870,1941.9,977.2,1906.5,977.2,1906.5z"/>
					
						<linearGradient id="SVGID_39_" gradientUnits="userSpaceOnUse" x1="2779.6021" y1="2323.6284" x2="2932.5198" y2="2520.5098" gradientTransform="matrix(0.9914 -0.1306 0.1306 0.9914 -2198.9988 -61.3823)">
						<stop  offset="0" style="stop-color:#09005D"/>
						<stop  offset="1" style="stop-color:#1A0F91"/>
					</linearGradient>
					<path class="st42" d="M909.7,2011.2l5.2-0.7c0,0-27-40.8-9.3-50.9c17.7-10.1,89.7-35,102.2-63.3c12.1-27.3-6-58.2-27.7-64.7
						c-1.4-0.4-2.8,0.4-3.3,1.8l-1.3,3.4c-0.9,2.4-4.2,2.5-5.2,0.1l0,0c-1-2.2-4.1-2.3-5.1-0.1c-3.9,8.5-15.4,23-50,34.2
						c-49.2,15.9-79.8,40.7-76,75.6c0.2,2.2-2,3.7-4,2.8c-4-1.8-10.1-2.1-17.2,5.7c-12.3,13.5-2.7,42.9,30.9,63.7
						c1.6,1,1.9,3.2,0.5,4.5c-5,4.3-12.1,13.9,10.6,22.5c23.3,8.7,35.9,5.8,40.6,3.9c1.3-0.5,2-1.8,1.7-3.1l-6-30.6
						c-0.3-1.6,0.8-3.1,2.4-3.3L909.7,2011.2z"/>
					
						<linearGradient id="SVGID_40_" gradientUnits="userSpaceOnUse" x1="2877.2944" y1="2398.2544" x2="2708.4248" y2="2527.4656" gradientTransform="matrix(0.9914 -0.1306 0.1306 0.9914 -2198.9988 -61.3823)">
						<stop  offset="0" style="stop-color:#FEBBBA"/>
						<stop  offset="1" style="stop-color:#FF928E"/>
					</linearGradient>
					<path class="st43" d="M911.8,2017.5c0,0-16.8-41.5-34.5-26.9c-17.7,14.6,16.3,46.8,32,46.4L911.8,2017.5z"/>
				</g>
			</g>
			<g>
				<g>
					
						<linearGradient id="SVGID_41_" gradientUnits="userSpaceOnUse" x1="21227.1875" y1="-22775.1426" x2="20805.748" y2="-22367.6934" gradientTransform="matrix(-1.388 -6.860000e-02 -6.850000e-02 1.3855 -4690.1738 -570.6171)">
						<stop  offset="0" style="stop-color:#09005D"/>
						<stop  offset="1" style="stop-color:#1A0F91"/>
					</linearGradient>
					<path class="st44" d="M1118.9,2515.1c0.2,0,0.5,0,0.7,0l314.6-0.3c7.8,0,14.1-6.3,14.1-14.1c0-7.8-6.3-14.2-14.1-14l-314.6,0.3
						c-7.8,0-14.1,6.3-14.1,14.1C1105.5,2508.6,1111.4,2514.7,1118.9,2515.1z"/>
				</g>
				<g>
					
						<linearGradient id="SVGID_42_" gradientUnits="userSpaceOnUse" x1="18195.043" y1="-22757.0957" x2="17773.6211" y2="-22349.6621" gradientTransform="matrix(0.6475 -1.2297 -1.2274 -0.6463 8775.9707 -5472.2012)">
						<stop  offset="0" style="stop-color:#09005D"/>
						<stop  offset="1" style="stop-color:#1A0F91"/>
					</linearGradient>
					<path class="st45" d="M1556.1,2207c-0.1,0.2-0.2,0.4-0.3,0.6L1423.4,2493c-3.3,7.1-0.2,15.4,6.8,18.7c7,3.3,15.5,0.2,18.7-6.9
						l132.4-285.4c3.3-7.1,0.2-15.4-6.8-18.7C1567.6,2197.6,1559.5,2200.4,1556.1,2207z"/>
				</g>
			</g>
			<g>
				<g>
					<rect x="2346.7" y="2801.9" class="st30" width="33.2" height="359.1"/>
					<path class="st30" d="M2508.8,3168h-290.8l0,0c0-11.9,9.7-21.6,21.6-21.6h247.6C2499.1,3146.4,2508.8,3156,2508.8,3168
						L2508.8,3168z"/>
					<path class="st30" d="M2551.9,2789.5c0,19.6-16.1,35.7-35.7,35.7h-294.3c-19.6,0-35.7-16.1-35.7-35.7v-32.3
						c0-19.6,16.1-35.7,35.7-35.7h294.3c19.6,0,35.7,16.1,35.7,35.7V2789.5z"/>
				</g>
				<g>
					<linearGradient id="SVGID_43_" gradientUnits="userSpaceOnUse" x1="1753.1082" y1="4229.4966" x2="2174.2903" y2="2544.7629">
						<stop  offset="0" style="stop-color:#FEBBBA"/>
						<stop  offset="1" style="stop-color:#FF928E"/>
					</linearGradient>
					<path class="st46" d="M2118.2,2562.5c0,0-49.3,7.6-104.8,44.7c-8.7,5.8-13.5,16-12.2,26.4c6.6,52.6,34,222.9,124,389.3
						c4.7,8.8,6.1,19,4,28.7l-15.6,72.8l-29,27.2h74.7L2209,3017l-21.3-6.7c-16.5-5.2-27.8-20.4-28.1-37.7l-2.5-144.5
						c2.1-64.4-39.5-108.8-39.5-108.8l119.4-5.8L2118.2,2562.5z"/>
					<linearGradient id="SVGID_44_" gradientUnits="userSpaceOnUse" x1="2706.1338" y1="2165.5156" x2="2305.7358" y2="2839.6023">
						<stop  offset="0" style="stop-color:#09005D"/>
						<stop  offset="1" style="stop-color:#1A0F91"/>
					</linearGradient>
					<path class="st47" d="M2055.3,3164.8c-6.8,8.9,73.3,20.7,113.7,1.2c0,0,56.1-97.6,56.1-147.8c0,0-4.5-10.2-37.4-7.9
						c0,0-18.8,115.5-38.7,128.5c-19.9,12.9-55.6,1.3-55.6,1.3S2065.4,3151.7,2055.3,3164.8z"/>
					<linearGradient id="SVGID_45_" gradientUnits="userSpaceOnUse" x1="1957.7664" y1="3163.9431" x2="2042.0026" y2="1907.4135">
						<stop  offset="0" style="stop-color:#FEBBBA"/>
						<stop  offset="1" style="stop-color:#FF928E"/>
					</linearGradient>
					<path class="st48" d="M2221.9,2721.5c-0.6-1.1-128.5-15.4-128.5-15.4s4.2,38.9-8.9,92.4c-13.1,53.5-200.8,285.4-200.8,285.4
						l19.7,62.4c-60.9,21.2-120.8,24.6-179.7,10.8l122-73.2c0,0,114.2-389.1,184.1-458.6L2158,2581L2221.9,2721.5z"/>
					<linearGradient id="SVGID_46_" gradientUnits="userSpaceOnUse" x1="2031.1371" y1="2613.3105" x2="2589.3159" y2="2613.3105">
						<stop  offset="0" style="stop-color:#09005D"/>
						<stop  offset="1" style="stop-color:#1A0F91"/>
					</linearGradient>
					<path class="st49" d="M2508.8,2495c0,0,73.7,109.6,79.7,159.6c6,50-20.2,70.3-97.5,73.7c-77.3,3.3-283.7,3.3-283.7,3.3
						L2031.1,2581c0,0,128.4-45.8,161.7-58.8C2226.3,2509.3,2508.8,2495,2508.8,2495z"/>
					<linearGradient id="SVGID_47_" gradientUnits="userSpaceOnUse" x1="2477.4297" y1="2029.6689" x2="2077.0847" y2="2703.6672">
						<stop  offset="0" style="stop-color:#09005D"/>
						<stop  offset="1" style="stop-color:#1A0F91"/>
					</linearGradient>
					<path class="st50" d="M1895.9,3125.3c0,0,21.2,20.5,6.9,43.4c0,0-167.9,29.8-213.5,16.3c0,0,9.5-21.6,60.8-46.2l-3.8,2.9
						c-4.8,3.7-2,11.3,4.1,11C1784.2,3150.7,1854.2,3144.6,1895.9,3125.3z"/>
				</g>
				<g>
					<linearGradient id="SVGID_48_" gradientUnits="userSpaceOnUse" x1="2424.3157" y1="1681.0231" x2="2342.1248" y2="2112.8164">
						<stop  offset="0" style="stop-color:#09005D"/>
						<stop  offset="1" style="stop-color:#1A0F91"/>
					</linearGradient>
					<path class="st51" d="M2189.6,1800c150.6-25.6,221.5,97.2,216.3,123c-0.7,3.4,2.5,6.3,5.9,5.4c17.3-4.7,55.5-10.5,79.2,19.1
						c20.9,26.2,5.3,50.9-7.5,64.5c-3.1,3.3-0.5,8.6,4,8c31.8-4,100.9-5,112.2,59.7c10.5,60.3-31.5,77.4-56.4,82.2
						c-4.2,0.8-5.2,6.4-1.6,8.7c12.4,7.9,26.8,24.2,21,56.3c-9.1,50.4-107.9,46.3-119.5,45.6c-0.7,0-1.4-0.3-2.1-0.6l-158.2-90.3
						c-1.2-0.7-2.1-1.9-2.3-3.3l-31.9-184.5c-0.3-1.5,0.2-3,1.3-4.1l-103.2-145.6C2109.4,1838.7,2187.8,1800.3,2189.6,1800z"/>
					<linearGradient id="SVGID_49_" gradientUnits="userSpaceOnUse" x1="2034.1322" y1="3078.9971" x2="2348.3677" y2="2374.5002">
						<stop  offset="0" style="stop-color:#4F52FF"/>
						<stop  offset="1" style="stop-color:#4042E2"/>
					</linearGradient>
					<path class="st52" d="M2309.5,2480.5c0,0-85.8-81.7-128-135.8c-22.8-29.3-30-67.8-19.4-103.3c19.3-65,53.6-132.3,56.7-142.7
						c4.8-16.1,101-15.4,101-15.4s189.3,122.9,263.7,331l-83.5,26c0,0-49.4-82.9-98.3-135.7c0,0,84.5,111.6,87.5,157.3
						L2309.5,2480.5z"/>
					<linearGradient id="SVGID_50_" gradientUnits="userSpaceOnUse" x1="2288.301" y1="2221.2476" x2="2254.668" y2="2005.4368">
						<stop  offset="0" style="stop-color:#FEBBBA"/>
						<stop  offset="1" style="stop-color:#FF928E"/>
					</linearGradient>
					<path class="st53" d="M2207.1,2009c1,3.3,26.1,86.6,28.1,88.3c2,1.7,55.1,4.6,80.1-12.5l-62-121.3L2207.1,2009z"/>
					<g>
						
							<linearGradient id="SVGID_51_" gradientUnits="userSpaceOnUse" x1="-231.9266" y1="5927.4321" x2="-11.7832" y2="6076.9634" gradientTransform="matrix(0.6042 -0.7968 0.7968 0.6042 -2477.407 -1773.6736)">
							<stop  offset="0" style="stop-color:#FEBBBA"/>
							<stop  offset="1" style="stop-color:#FF928E"/>
						</linearGradient>
						<path class="st54" d="M2106.4,1902c0,0-12.1,47.7,21.4,111.8c33.6,64.1,71.6,64.1,92.4,43.5c20.8-20.5,46.4-55.4,40.3-117.4
							C2254.4,1878,2123.9,1841.3,2106.4,1902z"/>
						
							<linearGradient id="SVGID_52_" gradientUnits="userSpaceOnUse" x1="-85.0753" y1="5748.5771" x2="-167.267" y2="6180.375" gradientTransform="matrix(0.6042 -0.7968 0.7968 0.6042 -2477.407 -1773.6736)">
							<stop  offset="0" style="stop-color:#09005D"/>
							<stop  offset="1" style="stop-color:#1A0F91"/>
						</linearGradient>
						<path class="st55" d="M2214.1,1943.4c0,0-55.7-85.2-107.9-18.1l-0.9,24.4c0,0-61.2-7.3-50.5-63.4
							c10.7-56.1,63.6-91.2,131.7-66.9c68.1,24.3,107.1,49.2,111.5,98c4.4,48.8-34.4,38.1-34.4,38.1s-12.7-34.4-30.7-37.9
							c-18-3.6-13.3,23.2-13.3,23.2L2214.1,1943.4z"/>
						
							<linearGradient id="SVGID_53_" gradientUnits="userSpaceOnUse" x1="-218.7301" y1="5908.0044" x2="1.4119" y2="6057.5347" gradientTransform="matrix(0.6042 -0.7968 0.7968 0.6042 -2477.407 -1773.6736)">
							<stop  offset="0" style="stop-color:#FEBBBA"/>
							<stop  offset="1" style="stop-color:#FF928E"/>
						</linearGradient>
						<path class="st56" d="M2228.3,1942.2c0,0-28.9-43.6,0.7-50.1c29.6-6.5,25,42.5,21.8,60.6L2228.3,1942.2z"/>
					</g>
					<linearGradient id="SVGID_54_" gradientUnits="userSpaceOnUse" x1="2426.4097" y1="2466.2856" x2="2894.4519" y2="2466.2856">
						<stop  offset="0" style="stop-color:#FEBBBA"/>
						<stop  offset="1" style="stop-color:#FF928E"/>
					</linearGradient>
					<path class="st57" d="M2134.7,2486.6l63-60.8l87.2,36.8c0,0,86.8,13.4,136.5,0c49.7-13.4,49.7-13.4,49.7-13.4l112.3-35
						l17.6,49.8c4.5,12.7,0,26.7-11,34.5c-9.7,6.9-21.1,14.5-28.4,17.7c-14.8,6.5-364.5-4.5-364.5-4.5L2134.7,2486.6z"/>
				</g>
				<g>
					
						<linearGradient id="SVGID_55_" gradientUnits="userSpaceOnUse" x1="2351.5256" y1="2592.3948" x2="2056.8894" y2="2673.1467" gradientTransform="matrix(0.9988 -4.940000e-02 4.940000e-02 0.9988 -41.469 -55.0328)">
						<stop  offset="0" style="stop-color:#09005D"/>
						<stop  offset="1" style="stop-color:#1A0F91"/>
					</linearGradient>
					<path class="st58" d="M2373.3,2515.2c-0.3,0-0.6,0-0.8,0l-365.7-0.4c-9,0-16.4-7.3-16.4-16.4c0-9,7.4-16.5,16.4-16.4l365.7,0.4
						c9,0,16.4,7.3,16.4,16.4C2388.8,2507.7,2381.9,2514.8,2373.3,2515.2z"/>
					<linearGradient id="SVGID_56_" gradientUnits="userSpaceOnUse" x1="2036.5231" y1="2227.748" x2="1827.4652" y2="2448.7092">
						<stop  offset="0" style="stop-color:#09005D"/>
						<stop  offset="1" style="stop-color:#1A0F91"/>
					</linearGradient>
					<path class="st59" d="M1678,2183.2h304.5c22.5,0,42.9,13,52.5,33.3l140.8,298.5h-378.5c-14.5,0-27.5-8.8-32.8-22.3
						l-109.2-276.3C1649.1,2200.5,1660.8,2183.2,1678,2183.2z"/>
					<path class="st30" d="M1892.5,2336.3c6.6,20.5,1.7,40.4-10.9,44.5c-12.6,4.1-28.2-9.3-34.8-29.8c-6.6-20.5-1.7-40.4,10.9-44.5
						C1870.4,2302.5,1885.9,2315.8,1892.5,2336.3z"/>
				</g>
			</g>
			<g>
				<g>
					
						<linearGradient id="SVGID_57_" gradientUnits="userSpaceOnUse" x1="-9410.1699" y1="3508.6206" x2="-9407.083" y2="3835.8411" gradientTransform="matrix(-1 0 0 1 -6719.2798 0)">
						<stop  offset="0" style="stop-color:#09005D"/>
						<stop  offset="1" style="stop-color:#1A0F91"/>
					</linearGradient>
					<path class="st60" d="M2790.2,3122.7c0,0,3.8,21.3,5.4,46.6c0.6,10.8-7.3,20.1-18.1,21.2c-37.4,3.6-122.6,10.3-177,2.5
						c-7.6-1.1-10.6-10.5-5-15.7c22.4-20.9,76.6-61.6,165.8-70.4L2790.2,3122.7z"/>
					
						<linearGradient id="SVGID_58_" gradientUnits="userSpaceOnUse" x1="-9489.0459" y1="3143.1982" x2="-9506.0244" y2="3010.4583" gradientTransform="matrix(-1 0 0 1 -6719.2798 0)">
						<stop  offset="0" style="stop-color:#FEBBBA"/>
						<stop  offset="1" style="stop-color:#FF928E"/>
					</linearGradient>
					<path class="st61" d="M2808.8,3074.7l-18.9,46.4c-2.6,6.4-9,10.3-15.9,9.6c-4.6-0.5-10.1-1.4-15.5-3
						c-10.7-3.2-16.7-14.6-13.5-25.3l14.3-47.8L2808.8,3074.7z"/>
					
						<linearGradient id="SVGID_59_" gradientUnits="userSpaceOnUse" x1="-9852.2656" y1="3512.7898" x2="-9849.1787" y2="3840.0083" gradientTransform="matrix(-1 0 0 1 -6719.2798 0)">
						<stop  offset="0" style="stop-color:#09005D"/>
						<stop  offset="1" style="stop-color:#1A0F91"/>
					</linearGradient>
					<path class="st62" d="M3132.3,3159.7c0,0-37.9,31.7-52.7,72.4c-4.1,11.2,4.5,23,16.4,23h78c11.4,0,20.2-10.3,18.2-21.5
						C3187.3,3205.4,3173,3159.8,3132.3,3159.7z"/>
					
						<linearGradient id="SVGID_60_" gradientUnits="userSpaceOnUse" x1="-9860.1318" y1="3188.6924" x2="-9876.6768" y2="3059.3406" gradientTransform="matrix(-1 0 0 1 -6719.2798 0)">
						<stop  offset="0" style="stop-color:#FEBBBA"/>
						<stop  offset="1" style="stop-color:#FF928E"/>
					</linearGradient>
					<path class="st63" d="M3179.3,3118.4c0,0-7.7,33.9-13.5,56.3c-1.1,4.1-5.4,6.3-9.4,4.9c-11.8-4.2-21.4-6.1-28.4-5.1
						c-3.2,0.4-6-2.3-6.1-5.5l-0.7-56.3L3179.3,3118.4z"/>
					<linearGradient id="SVGID_61_" gradientUnits="userSpaceOnUse" x1="2880.4761" y1="2144.384" x2="3033.6594" y2="2890.0271">
						<stop  offset="0" style="stop-color:#09005D"/>
						<stop  offset="1" style="stop-color:#1A0F91"/>
					</linearGradient>
					<path class="st64" d="M2977.7,2356l-230.5,703.2c0,0,44.2,29,65.3,27.7l273.8-565.1c0,0,47.9,348.2,24.7,598.2l78.4,6
						c0,0,127.5-638.9,30.9-857.7L2977.7,2356z"/>
					
						<linearGradient id="SVGID_62_" gradientUnits="userSpaceOnUse" x1="-9870.124" y1="2619.0464" x2="-9851.6016" y2="2582.0029" gradientTransform="matrix(-1 0 0 1 -6719.2798 0)">
						<stop  offset="0" style="stop-color:#4F52FF"/>
						<stop  offset="1" style="stop-color:#4042E2"/>
					</linearGradient>
					<path class="st65" d="M3084.8,2515.7c0.1,0,0.2,0,0.3,0c1.2-0.2,2.1-1.3,1.9-2.5l-8.9-71c-0.2-1.2-1.3-2.1-2.5-1.9
						c-1.2,0.2-2.1,1.3-1.9,2.5l8.9,71C3082.7,2514.9,3083.7,2515.7,3084.8,2515.7z"/>
				</g>
				
					<linearGradient id="SVGID_63_" gradientUnits="userSpaceOnUse" x1="-9565.3291" y1="1840.9382" x2="-9883.2871" y2="2785.5515" gradientTransform="matrix(-1 0 0 1 -6719.2798 0)">
					<stop  offset="0" style="stop-color:#4F52FF"/>
					<stop  offset="1" style="stop-color:#4042E2"/>
				</linearGradient>
				<path class="st66" d="M2934.5,1737.2c0,0,186.8,16.6,160.3,149.6c0,0,103.2,194.3,151.5,423.1c1.6,7.4-3.4,14.7-10.9,16
					l-311,53.2c-8.6,1.5-16.9-3.9-19-12.3l-74.3-287.2l-29,133.5l-92-24l77.5-392.4C2787.6,1796.9,2798.4,1739.7,2934.5,1737.2z"/>
				<path class="st1" d="M2829.5,2066.9c0.2,0,0.3,0,0.5-0.1c1.2-0.3,2-1.5,1.8-2.8l-25.9-119c-0.3-1.2-1.5-2-2.8-1.8
					c-1.2,0.3-2,1.5-1.8,2.8l25.9,119C2827.5,2066.2,2828.4,2066.9,2829.5,2066.9z"/>
				
					<linearGradient id="SVGID_64_" gradientUnits="userSpaceOnUse" x1="-9735.084" y1="2339.1289" x2="-9503.1973" y2="2339.1289" gradientTransform="matrix(-1 0 0 1 -6719.2798 0)">
					<stop  offset="0" style="stop-color:#FEBBBA"/>
					<stop  offset="1" style="stop-color:#FF928E"/>
				</linearGradient>
				<path class="st67" d="M2848.3,2421.1c9.8-5.4,21.3-6.9,32.1-4.2l21.6,5.4c4.6,1.1,9.2-2,9.7-6.7l22.4-199.3
					c28,13.3,68.4,11.7,81.7,10.7l-51.5,235h-180.3L2848.3,2421.1z"/>
				
					<linearGradient id="SVGID_65_" gradientUnits="userSpaceOnUse" x1="-9521.3945" y1="2048.4456" x2="-9088.3574" y2="2048.4456" gradientTransform="matrix(-1 0 0 1 -6719.2798 0)">
					<stop  offset="0" style="stop-color:#FEBBBA"/>
					<stop  offset="1" style="stop-color:#FF928E"/>
				</linearGradient>
				<path class="st68" d="M2369.1,1988.8l5.5-18.1c3.1-10.4,10.8-18.9,20.9-22.9l98.6-39.6c0,0,1.5-12.6-20.8-21.2
					c-22.3-8.6-17.1-33.6-17.1-33.6s30.5,13.9,75.1,36c25.5,12.6,39.9,34.9,47.4,51.7l223.4,272.3l-26.2,18
					c-34.5,23.7-81.9,12.1-101.5-24.9l-121-232.1C2492.6,1992.5,2431.1,1996,2369.1,1988.8z"/>
				<g>
					
						<linearGradient id="SVGID_66_" gradientUnits="userSpaceOnUse" x1="-9677.2949" y1="1805.5699" x2="-9526.5879" y2="1650.9484" gradientTransform="matrix(-1 0 0 1 -6719.2798 0)">
						<stop  offset="0" style="stop-color:#FEBBBA"/>
						<stop  offset="1" style="stop-color:#FF928E"/>
					</linearGradient>
					<path class="st69" d="M2874,1610.2l57.4,160.8c0,0-50.9,39.8-88,26.3l-28.9-92.2C2814.5,1705.1,2836.6,1592.5,2874,1610.2z"/>
					<g>
						
							<linearGradient id="SVGID_67_" gradientUnits="userSpaceOnUse" x1="-9458.7324" y1="1553.5282" x2="-9646.627" y2="1802.0967" gradientTransform="matrix(-1 0 0 1 -6719.2798 0)">
							<stop  offset="0" style="stop-color:#FEBBBA"/>
							<stop  offset="1" style="stop-color:#FF928E"/>
						</linearGradient>
						<path class="st70" d="M2702.6,1552.4c0,2.5,55.3,156.6,55.3,156.6l87.3-33.5l-30.7-153.9
							C2814.5,1521.7,2702.6,1511,2702.6,1552.4z"/>
						<linearGradient id="SVGID_68_" gradientUnits="userSpaceOnUse" x1="3025.8757" y1="846.5982" x2="2827.6375" y2="1421.0369">
							<stop  offset="0" style="stop-color:#E1473D"/>
							<stop  offset="1" style="stop-color:#E9605A"/>
						</linearGradient>
						<path class="st71" d="M2799.2,1559.2l22.5,79.7c0.3,1,0.4,2.1,0.4,3.1c0,6.5-1.6,28.9-24.4,25.8c-20.7-2.8-39.6-5-51.6,0.7
							c-5.4,2.5-8,8.8-6,14.4c5,14,17,45.4,31.5,71c2.9,5.2,9.4,7.2,14.8,4.8c16.4-7.5,50.6-24.2,74.9-44.1
							c3.3-2.7,4.9-6.9,4.1-11.1c-3.8-20.4-15.2-82.4-15.7-100.2c-0.5-16.7,18.3-29.4,26.5-34.2c2.7-1.6,4.6-4.2,5.4-7.2
							c2.6-10.7,4.8-35.1-26.2-40.4c-6.5-1.1-10.7-7.3-9.4-13.8c2.6-12.8,1.8-31.8-22.6-38.7c-24.8-7.1-40.4,7.8-48.3,19.3
							c-3.2,4.6-9.2,6.1-14.4,3.8c-2.9-1.3-6.5-1.4-10.3,1.8c-5.1,4.3-12.9,3-16.7-2.5c-7.2-10.6-20.4-21.3-42.6-14.1
							c-39.5,12.8-37.6,58.3-23.1,83c14.5,24.7,56.5,8.5,76.3-7.9c15.1-12.5,38.1-5,48.3-0.7
							C2795.9,1553.1,2798.3,1555.8,2799.2,1559.2z"/>
						
							<linearGradient id="SVGID_69_" gradientUnits="userSpaceOnUse" x1="-9733.9238" y1="1750.3748" x2="-9583.2178" y2="1595.7542" gradientTransform="matrix(-1 0 0 1 -6719.2798 0)">
							<stop  offset="0" style="stop-color:#FEBBBA"/>
							<stop  offset="1" style="stop-color:#FF928E"/>
						</linearGradient>
						<path class="st72" d="M2857.6,1632.5c0,0-23.4-44.2-7.9-58.1c15.4-13.9,41.6-11.6,40.9,22.9
							C2889.8,1640.3,2857.6,1632.5,2857.6,1632.5z"/>
					</g>
				</g>
				<path class="st1" d="M2997.7,2230c12.7,0,21.8-1,22.8-1.1l1.7-0.2l68-317c0.3-1.3-0.5-2.5-1.8-2.7c-1.3-0.3-2.5,0.5-2.7,1.8
					l-67.3,313.8c-10.1,0.9-64.2,4.5-92.7-15.7l58.9-275.5l-12.3-23.2c-0.6-1.1-2-1.6-3.1-1c-1.1,0.6-1.6,2-1,3.1l11.5,21.7
					l-59.2,276.7l1.2,0.9C2942.3,2227.1,2975.5,2230,2997.7,2230z"/>
			</g>
			<g>
				<linearGradient id="SVGID_70_" gradientUnits="userSpaceOnUse" x1="596.5228" y1="4604.4004" x2="1154.646" y2="2614.1077">
					<stop  offset="0" style="stop-color:#4F52FF"/>
					<stop  offset="1" style="stop-color:#4042E2"/>
				</linearGradient>
				<path class="st73" d="M959.1,3196.6c-1.6,0-3.1-0.3-4.7-1.1c-6-2.8-8.8-10.4-6.2-17l248.5-630.5c2.6-6.6,9.5-9.6,15.6-6.8
					c6,2.8,8.8,10.4,6.2,17L970,3188.8C968,3193.7,963.7,3196.6,959.1,3196.6z"/>
				<linearGradient id="SVGID_71_" gradientUnits="userSpaceOnUse" x1="625.664" y1="4612.5732" x2="1183.7877" y2="2622.2786">
					<stop  offset="0" style="stop-color:#4F52FF"/>
					<stop  offset="1" style="stop-color:#4042E2"/>
				</linearGradient>
				<path class="st74" d="M1239,3196.6c-4.6,0-9-2.9-10.9-7.8l-248.5-630.5c-2.6-6.6,0.2-14.2,6.2-17c6-2.8,13,0.2,15.6,6.8
					l248.5,630.5c2.6,6.6-0.2,14.2-6.2,17C1242.2,3196.3,1240.6,3196.6,1239,3196.6z"/>
				<linearGradient id="SVGID_72_" gradientUnits="userSpaceOnUse" x1="2159.9985" y1="5042.8398" x2="2718.1218" y2="3052.5469">
					<stop  offset="0" style="stop-color:#4F52FF"/>
					<stop  offset="1" style="stop-color:#4042E2"/>
				</linearGradient>
				<path class="st75" d="M2645.5,3196.6c-1.6,0-3.1-0.3-4.7-1.1c-6-2.8-8.8-10.4-6.2-17l248.5-630.5c2.6-6.6,9.5-9.6,15.6-6.8
					c6,2.8,8.8,10.4,6.2,17l-248.5,630.5C2654.5,3193.7,2650.1,3196.6,2645.5,3196.6z"/>
				<linearGradient id="SVGID_73_" gradientUnits="userSpaceOnUse" x1="2189.1392" y1="5051.0073" x2="2747.2629" y2="3060.7129">
					<stop  offset="0" style="stop-color:#4F52FF"/>
					<stop  offset="1" style="stop-color:#4042E2"/>
				</linearGradient>
				<path class="st76" d="M2925.4,3196.6c-4.6,0-9-2.9-10.9-7.8L2666,2558.3c-2.6-6.6,0.2-14.2,6.2-17c6-2.8,13,0.2,15.6,6.8
					l248.5,630.5c2.6,6.6-0.2,14.2-6.2,17C2928.6,3196.3,2927,3196.6,2925.4,3196.6z"/>
			</g>
			<g>
				<path class="st1" d="M2609.4,2503.6l359.9,0v-37.1h-359.9C2617.1,2466.4,2617.1,2503.6,2609.4,2503.6z"/>
				<linearGradient id="SVGID_74_" gradientUnits="userSpaceOnUse" x1="2947.3809" y1="1869.3344" x2="2857.7068" y2="2245.9656">
					<stop  offset="0" style="stop-color:#09005D"/>
					<stop  offset="1" style="stop-color:#1A0F91"/>
				</linearGradient>
				<path class="st77" d="M2966,2503.6c1.9,0,3.4-1.5,3.4-3.4v-30.4c0-1.9-1.5-3.4-3.4-3.4h-364.1c-1.9,0-3.4-1.5-3.4-3.4v-1.6
					c0-1.9,1.5-3.4,3.4-3.4h388.1c8.6,0,15.5,7,15.5,15.5v23.7c0,8.1-6.6,14.7-14.7,14.7h-389c-1.9,0-3.4-1.5-3.4-3.4v-1.6
					c0-1.9,1.5-3.4,3.4-3.4H2966z"/>
			</g>
			<linearGradient id="SVGID_75_" gradientUnits="userSpaceOnUse" x1="1284.071" y1="4797.1997" x2="1842.1941" y2="2806.9075">
				<stop  offset="0" style="stop-color:#4F52FF"/>
				<stop  offset="1" style="stop-color:#4042E2"/>
			</linearGradient>
			<path class="st78" d="M3021.5,2528.6c1.2-4.1-0.4-8.4-4.5-11.7c-4.1-3.3-10.1-5.1-16.5-5.1H844.1c-8.4,0-16.2,2.8-20.7,7.5
				c-4.5,4.7-5.1,10.6-1.6,15.6l23.4,33.5c5.4,7.7,16.9,12.6,29.7,12.6h2110.9c11.9,0,22.1-5.6,24.3-13.3L3021.5,2528.6z"/>
		</g>
	</g>
</g>
</svg>
